<svg xmlns="http://www.w3.org/2000/svg" viewBox="0 0 373.49 374.53"><defs><style>.a{fill:#fff;}</style></defs><title>hex-art</title><path class="a" d="M58.4,1,77.48,34.05,58.4,67.1H20.23l-19.08-33L20.23,1H58.4M59,0H19.66L0,34.05,19.66,68.1H59l19.66-34L59,0Z" transform="translate(0 0)"/><path class="a" d="M58.4,69.1l19.08,33L58.4,135.19H20.23l-19.08-33,19.08-33H58.4m.57-1H19.66L0,102.14l19.66,34.05H59l19.66-34L59,68.1Z" transform="translate(0 0)"/><path class="a" d="M117.37,35.05,136.45,68.1l-19.08,33H79.21l-19.08-33,19.08-33h38.16m.58-1H78.63L59,68.1l19.66,34H118l19.65-34L118,34.05Z" transform="translate(0 0)"/><path class="a" d="M176.34,1l19.08,33.05L176.34,67.1H138.18l-19.08-33L138.18,1h38.16m.58-1H137.6L118,34.05,137.6,68.1h39.32l19.66-34L176.92,0Z" transform="translate(0 0)"/><path class="a" d="M176.34,69.1l19.08,33-19.08,33.05H138.18l-19.08-33,19.08-33h38.16m.58-1H137.6l-19.65,34,19.65,34.05h39.32l19.66-34-19.66-34Z" transform="translate(0 0)"/><path class="a" d="M235.31,35.05,254.39,68.1l-19.08,33H197.15l-19.08-33,19.08-33h38.16m.58-1H196.58L176.92,68.1l19.66,34h39.31l19.66-34-19.66-34Z" transform="translate(0 0)"/><path class="a" d="M117.37,103.14l19.08,33.05-19.08,33.05H79.21L60.13,136.19l19.08-33h38.16m.58-1H78.63L59,136.19l19.66,34.05H118l19.65-34.05-19.65-34Z" transform="translate(0 0)"/><path class="a" d="M176.34,137.19l19.08,33.05-19.08,33H138.18l-19.08-33,19.08-33.05h38.16m.58-1H137.6L118,170.24l19.65,34h39.32l19.66-34-19.66-34.05Z" transform="translate(0 0)"/><path class="a" d="M235.31,103.14l19.08,33.05-19.08,33.05H197.15l-19.08-33.05,19.08-33h38.16m.58-1H196.58l-19.66,34.05,19.66,34.05h39.31l19.66-34.05-19.66-34Z" transform="translate(0 0)"/><path class="a" d="M353.26,171.24l19.08,33-19.08,33H315.1l-19.08-33,19.08-33h38.16m.58-1H314.52l-19.66,34,19.66,34h39.32l19.65-34-19.65-34Z" transform="translate(0 0)"/><path class="a" d="M294.29,137.19l19.08,33.05-19.08,33H256.13l-19.09-33,19.09-33.05h38.16m.57-1H255.55l-19.66,34.05,19.66,34h39.31l19.66-34-19.66-34.05Z" transform="translate(0 0)"/><path class="a" d="M176.34,205.29l19.08,33-19.08,33H138.18l-19.08-33,19.08-33h38.16m.58-1H137.6l-19.65,34,19.65,34h39.32l19.66-34-19.66-34Z" transform="translate(0 0)"/><path class="a" d="M235.31,171.24l19.08,33-19.08,33H197.15l-19.08-33,19.08-33h38.16m.58-1H196.58l-19.66,34,19.66,34h39.31l19.66-34-19.66-34Z" transform="translate(0 0)"/><path class="a" d="M235.31,239.33l19.08,33-19.08,33.05H197.15l-19.08-33.05,19.08-33h38.16m.58-1H196.58l-19.66,34,19.66,34.05h39.31l19.66-34.05-19.66-34Z" transform="translate(0 0)"/><path class="a" d="M294.29,205.29l19.08,33-19.08,33H256.13l-19.09-33,19.09-33h38.16m.57-1H255.55l-19.66,34,19.66,34h39.31l19.66-34-19.66-34Z" transform="translate(0 0)"/><path class="a" d="M176.34,273.38l19.08,33.05-19.08,33.05H138.18L119.1,306.43l19.08-33.05h38.16m.58-1H137.6L118,306.43l19.65,34.05h39.32l19.66-34.05-19.66-34.05Z" transform="translate(0 0)"/><path class="a" d="M235.31,307.43l19.08,33.05-19.08,33H197.15l-19.08-33,19.08-33.05h38.16m.58-1H196.58l-19.66,34.05,19.66,34h39.31l19.66-34-19.66-34.05Z" transform="translate(0 0)"/><path class="a" d="M294.29,273.38l19.08,33.05-19.08,33.05H256.13L237,306.43l19.09-33.05h38.16m.57-1H255.55l-19.66,34.05,19.66,34.05h39.31l19.66-34.05-19.66-34.05Z" transform="translate(0 0)"/></svg>